<svg width="360" height="360" viewBox="0 0 360 360" fill="none" xmlns="http://www.w3.org/2000/svg"><g opacity=".9"><circle cx="238" cy="234" r="42" fill="#8FAADC"/><circle cx="278" cy="216" r="36" fill="#B9CBE8"/><circle cx="274" cy="264" r="44" fill="#AFC3E4"/><circle cx="222" cy="282" r="34" fill="#DDE8F8"/><circle cx="252" cy="250" r="24" fill="#FDFBF7"/><path d="M210 210C154 196 106 160 64 102" stroke="#F2C6CF" stroke-width="10" stroke-linecap="round"/><path d="M142 166c-26 24-58 26-96 6 24-26 58-32 96-6Z" fill="#F2C6CF"/><path d="M108 116c-30 18-62 14-94-12 30-18 62-18 94 12Z" fill="#F5D5DA"/><path d="M286 176c16-36 14-72-8-112-30 28-38 66 8 112Z" fill="#EFB9C4"/><path d="M210 318c-42-18-70-46-86-84" stroke="#D4AF37" stroke-width="3" stroke-linecap="round" opacity=".65"/></g></svg>