<svg width="360" height="360" viewBox="0 0 360 360" fill="none" xmlns="http://www.w3.org/2000/svg"><g opacity=".92"><circle cx="88" cy="96" r="44" fill="#F2C6CF"/><circle cx="124" cy="78" r="38" fill="#F5D5DA"/><circle cx="132" cy="122" r="46" fill="#EFB9C4"/><circle cx="82" cy="142" r="36" fill="#F7DEE2"/><circle cx="112" cy="112" r="26" fill="#FFF7F8"/><path d="M154 148c62 10 108 46 142 108" stroke="#8FAADC" stroke-width="10" stroke-linecap="round"/><path d="M188 176c24-28 56-34 94-20-20 28-52 38-94 20Z" fill="#B9CBE8"/><path d="M216 220c28-22 60-22 94 0-26 22-58 26-94 0Z" fill="#AFC3E4"/><path d="M72 182c-20 34-22 72-8 116 34-24 48-60 8-116Z" fill="#DDE8F8"/><path d="M145 42c40 20 66 50 78 90" stroke="#D4AF37" stroke-width="3" stroke-linecap="round" opacity=".65"/></g></svg>