<svg width="1800" height="1200" viewBox="0 0 1800 1200" fill="none" xmlns="http://www.w3.org/2000/svg">
  <defs>
    <linearGradient id="sky" x1="160" y1="80" x2="1640" y2="1120" gradientUnits="userSpaceOnUse">
      <stop stop-color="#F7CAC9"/>
      <stop offset="0.42" stop-color="#FFFAF7"/>
      <stop offset="1" stop-color="#92A8D1"/>
    </linearGradient>
    <radialGradient id="halo" cx="0" cy="0" r="1" gradientUnits="userSpaceOnUse" gradientTransform="translate(1060 438) rotate(95) scale(420 560)">
      <stop stop-color="#FFFFFF" stop-opacity="0.88"/>
      <stop offset="1" stop-color="#FFFFFF" stop-opacity="0"/>
    </radialGradient>
    <radialGradient id="roseGlow" cx="0" cy="0" r="1" gradientUnits="userSpaceOnUse" gradientTransform="translate(1370 310) rotate(112) scale(410 360)">
      <stop stop-color="#F7CAC9" stop-opacity="0.46"/>
      <stop offset="1" stop-color="#F7CAC9" stop-opacity="0"/>
    </radialGradient>
    <radialGradient id="blueGlow" cx="0" cy="0" r="1" gradientUnits="userSpaceOnUse" gradientTransform="translate(550 860) rotate(44) scale(520 360)">
      <stop stop-color="#92A8D1" stop-opacity="0.34"/>
      <stop offset="1" stop-color="#92A8D1" stop-opacity="0"/>
    </radialGradient>
    <filter id="softBlur" x="-20%" y="-20%" width="140%" height="140%">
      <feGaussianBlur stdDeviation="34"/>
    </filter>
    <filter id="shadow" x="-30%" y="-30%" width="160%" height="160%">
      <feDropShadow dx="0" dy="32" stdDeviation="34" flood-color="#252934" flood-opacity="0.18"/>
    </filter>
    <linearGradient id="veil" x1="622" y1="188" x2="1294" y2="1070" gradientUnits="userSpaceOnUse">
      <stop stop-color="#FFFFFF" stop-opacity="0.78"/>
      <stop offset="0.48" stop-color="#FFFFFF" stop-opacity="0.2"/>
      <stop offset="1" stop-color="#F7CAC9" stop-opacity="0.12"/>
    </linearGradient>
    <linearGradient id="dress" x1="842" y1="560" x2="1112" y2="1122" gradientUnits="userSpaceOnUse">
      <stop stop-color="#FFFFFF" stop-opacity="0.96"/>
      <stop offset="0.54" stop-color="#F6EFF2" stop-opacity="0.9"/>
      <stop offset="1" stop-color="#E8EEF8" stop-opacity="0.78"/>
    </linearGradient>
    <linearGradient id="suit" x1="1046" y1="548" x2="1248" y2="1034" gradientUnits="userSpaceOnUse">
      <stop stop-color="#252934"/>
      <stop offset="1" stop-color="#3E4658"/>
    </linearGradient>
  </defs>

  <rect width="1800" height="1200" fill="url(#sky)"/>
  <rect width="1800" height="1200" fill="url(#halo)"/>
  <rect width="1800" height="1200" fill="url(#roseGlow)"/>
  <rect width="1800" height="1200" fill="url(#blueGlow)"/>

  <path d="M0 838C188 746 356 724 560 790C780 862 886 748 1082 718C1326 681 1576 764 1800 872V1200H0V838Z" fill="#252934" opacity="0.08"/>
  <path d="M110 880C280 744 482 732 682 835C842 918 1008 880 1174 786C1352 684 1544 716 1698 812" stroke="#FFFFFF" stroke-width="5" opacity="0.46"/>
  <path d="M210 716C370 632 550 636 730 727C888 808 1018 805 1172 708C1320 616 1486 598 1640 662" stroke="#F7CAC9" stroke-width="4" opacity="0.42"/>
  <path d="M160 760C336 822 516 822 704 746C905 664 1088 676 1270 780C1422 868 1584 866 1740 796" stroke="#92A8D1" stroke-width="4" opacity="0.36"/>

  <g opacity="0.42" filter="url(#softBlur)">
    <ellipse cx="1260" cy="938" rx="430" ry="130" fill="#252934"/>
  </g>

  <g filter="url(#shadow)" transform="translate(230 0)">
    <path d="M792 328C850 238 954 196 1070 218C1186 240 1282 324 1328 446C1192 406 1050 405 922 455C827 492 746 560 690 650C664 535 704 426 792 328Z" fill="url(#veil)" opacity="0.96"/>
    <path d="M828 438C902 344 1014 318 1110 358C1246 414 1306 574 1278 786C1200 714 1088 684 974 714C854 746 766 826 716 948C664 756 704 596 828 438Z" fill="#FFFFFF" opacity="0.2"/>

    <path d="M860 620C832 708 780 836 718 1080H1138C1084 850 1048 716 1012 620C966 650 908 654 860 620Z" fill="url(#dress)"/>
    <path d="M844 610C784 728 730 876 680 1090H900C914 930 918 762 902 628C884 626 862 620 844 610Z" fill="#FFFFFF" opacity="0.42"/>
    <path d="M1018 626C1078 734 1138 890 1184 1090H1032C1014 936 1004 770 1018 626Z" fill="#D8E3F5" opacity="0.34"/>

    <path d="M990 438C990 506 942 560 882 560C826 560 782 508 782 442C782 376 828 328 888 328C948 328 990 372 990 438Z" fill="#2B2F3D"/>
    <path d="M868 468C924 494 982 488 1040 446C1042 512 1006 594 946 624C884 654 818 628 782 568C806 540 832 506 868 468Z" fill="#F4D6D8" opacity="0.82"/>
    <path d="M1012 424C1038 376 1088 352 1142 366C1198 380 1228 424 1228 484C1228 536 1190 584 1138 590C1080 598 1028 558 1016 500C1008 468 1008 444 1012 424Z" fill="#252934"/>
    <path d="M1038 474C1086 512 1150 516 1204 486C1194 560 1162 628 1094 642C1040 654 998 622 982 568C1008 544 1026 514 1038 474Z" fill="#EBC8CB" opacity="0.82"/>

    <path d="M1048 604C1116 594 1198 608 1258 666C1282 806 1300 948 1300 1090H1138C1118 900 1082 742 1048 604Z" fill="url(#suit)"/>
    <path d="M1074 650C1118 692 1174 704 1232 682C1218 792 1206 932 1206 1090H1126C1114 934 1096 782 1074 650Z" fill="#FFFFFF" opacity="0.1"/>
    <path d="M966 626C1006 622 1042 626 1074 642C1044 722 1018 820 998 936C970 820 948 724 966 626Z" fill="#FFFFFF" opacity="0.78"/>
    <path d="M936 736C990 780 1042 778 1090 730" stroke="#F7CAC9" stroke-width="12" stroke-linecap="round" opacity="0.56"/>
  </g>

  <g opacity="0.52">
    <circle cx="268" cy="246" r="46" fill="#F7CAC9"/>
    <circle cx="314" cy="226" r="34" fill="#FCE0E4"/>
    <circle cx="318" cy="272" r="50" fill="#EFB9C4"/>
    <path d="M358 294C470 312 546 366 586 456" stroke="#92A8D1" stroke-width="14" stroke-linecap="round"/>
    <path d="M412 330C454 296 500 292 552 320C506 360 462 364 412 330Z" fill="#C4D3EC"/>
  </g>
  <g opacity="0.46" transform="translate(1350 744)">
    <circle cx="130" cy="170" r="48" fill="#92A8D1"/>
    <circle cx="178" cy="150" r="36" fill="#DDE8F8"/>
    <circle cx="188" cy="202" r="52" fill="#B7C9E8"/>
    <path d="M108 148C38 112 -4 62 -22 -16" stroke="#F7CAC9" stroke-width="14" stroke-linecap="round"/>
    <path d="M70 110C30 138 -18 132 -64 94C-18 68 28 74 70 110Z" fill="#F7CAC9"/>
  </g>

  <text x="1370" y="416" text-anchor="middle" fill="#252934" opacity="0.08" font-family="Georgia, serif" font-size="230">NP</text>
</svg>
