<svg width="1600" height="1100" viewBox="0 0 1600 1100" fill="none" xmlns="http://www.w3.org/2000/svg">
<defs>
  <linearGradient id="sky" x1="0" y1="0" x2="1" y2="1"><stop stop-color="#F2C6CF"/><stop offset="0.42" stop-color="#FDFBF7"/><stop offset="1" stop-color="#8FAADC"/></linearGradient>
  <radialGradient id="glow" cx="50%" cy="42%" r="68%"><stop stop-color="#FFFFFF" stop-opacity="0.78"/><stop offset="1" stop-color="#FFFFFF" stop-opacity="0"/></radialGradient>
  <filter id="blur"><feGaussianBlur stdDeviation="42"/></filter>
</defs>
<rect width="1600" height="1100" fill="url(#sky)"/>
<rect width="1600" height="1100" fill="url(#glow)"/>
<circle cx="1220" cy="250" r="330" fill="#F2C6CF" opacity="0.34" filter="url(#blur)"/>
<circle cx="330" cy="790" r="390" fill="#8FAADC" opacity="0.28" filter="url(#blur)"/>
<path d="M0 792C178 694 318 724 492 790C718 876 938 726 1154 702C1344 682 1484 730 1600 812V1100H0V792Z" fill="#2F3A35" opacity="0.16"/>
<path d="M80 854c140-152 260-176 420-92 134 70 238 184 404 80 178-112 350-92 576 74" stroke="#FDFBF7" stroke-width="5" opacity="0.42"/>
<path d="M220 648c122-82 244-82 366 0 122 82 244 82 366 0 122-82 244-82 366 0" stroke="#D4AF37" stroke-width="3" opacity="0.38"/>
<g opacity="0.82"><circle cx="142" cy="176" r="48" fill="#F2C6CF"/><circle cx="190" cy="154" r="38" fill="#F5D5DA"/><circle cx="198" cy="204" r="52" fill="#EFB9C4"/><circle cx="144" cy="230" r="36" fill="#F7DEE2"/><path d="M238 226c78 18 134 66 170 144" stroke="#8FAADC" stroke-width="13" stroke-linecap="round"/><path d="M278 260c32-32 74-38 120-16-30 34-70 42-120 16Z" fill="#B9CBE8"/></g>
<g opacity="0.82" transform="translate(1160 710)"><circle cx="142" cy="176" r="48" fill="#8FAADC"/><circle cx="190" cy="154" r="38" fill="#B9CBE8"/><circle cx="198" cy="204" r="52" fill="#AFC3E4"/><circle cx="144" cy="230" r="36" fill="#DDE8F8"/><path d="M122 156c-78-18-134-66-170-144" stroke="#F2C6CF" stroke-width="13" stroke-linecap="round"/><path d="M82 122c-32 32-74 38-120 16 30-34 70-42 120-16Z" fill="#F2C6CF"/></g>
<text x="800" y="458" text-anchor="middle" fill="#2F3A35" opacity="0.24" font-family="serif" font-size="210">NP</text>
</svg>
